<svg xmlns="http://www.w3.org/2000/svg" version="1.1" xmlns:xlink="http://www.w3.org/1999/xlink" xmlns:svgjs="http://svgjs.dev/svgjs" width="2000" height="1500" viewBox="0 0 2000 1500"><rect width="2000" height="1500" fill="#000000"></rect><g transform="matrix(0.75,0,0,0.75,249.090909090909,405.635077831736)"><svg viewBox="0 0 396 182" data-background-color="#000000" preserveAspectRatio="xMidYMid meet" height="919" width="2000" xmlns="http://www.w3.org/2000/svg" xmlns:xlink="http://www.w3.org/1999/xlink"><g id="tight-bounds" transform="matrix(1,0,0,1,0.2400000000000091,-0.06866615417159494)"><svg viewBox="0 0 395.52 182.13734104046242" height="182.13734104046242" width="395.52"><g><svg viewBox="0 0 395.52 182.13734104046242" height="182.13734104046242" width="395.52"><g><svg viewBox="0 0 395.52 182.13734104046242" height="182.13734104046242" width="395.52"><g id="textblocktransform"><svg viewBox="0 0 395.52 182.13734104046242" height="182.13734104046242" width="395.52" id="textblock"><g><svg viewBox="0 0 395.52 182.13734104046242" height="182.13734104046242" width="395.52"><g transform="matrix(1,0,0,1,0,0)"><svg width="395.52" viewBox="3.0299999713897705 -35.0099983215332 76.02000427246094 35.0099983215332" height="182.13734104046242" data-palette-color="#ffffff"><path d="M38.04-31.81L38.04 0 31.69 0 31.69-8.59 9.38-8.59 9.38 0 3.03 0 3.03-17.5Q3.03-21.34 4.35-24.56 5.66-27.78 8.01-30.1 10.35-32.42 13.55-33.72 16.75-35.01 20.53-35.01L20.53-35.01 34.84-35.01Q35.5-35.01 36.08-34.77 36.67-34.52 37.11-34.08 37.55-33.64 37.79-33.06 38.04-32.47 38.04-31.81L38.04-31.81ZM9.38-17.5L9.38-14.94 31.69-14.94 31.69-28.66 20.53-28.66Q20.24-28.66 19.3-28.58 18.36-28.49 17.13-28.15 15.89-27.81 14.53-27.1 13.16-26.39 12.01-25.15 10.86-23.9 10.12-22.03 9.38-20.17 9.38-17.5L9.38-17.5ZM79.05-10.3L79.05-10.3Q79.05-8.42 78.57-6.92 78.1-5.42 77.32-4.27 76.54-3.13 75.49-2.32 74.44-1.51 73.31-1 72.19-0.49 71.03-0.24 69.87 0 68.85 0L68.85 0 44.36 0 44.36-6.35 68.85-6.35Q70.68-6.35 71.69-7.42 72.7-8.5 72.7-10.3L72.7-10.3Q72.7-11.18 72.43-11.91 72.17-12.65 71.66-13.18 71.16-13.72 70.44-14.01 69.72-14.31 68.85-14.31L68.85-14.31 54.25-14.31Q52.71-14.31 50.93-14.86 49.14-15.41 47.62-16.63 46.09-17.85 45.08-19.82 44.06-21.8 44.06-24.66L44.06-24.66Q44.06-27.51 45.08-29.48 46.09-31.45 47.62-32.68 49.14-33.91 50.93-34.46 52.71-35.01 54.25-35.01L54.25-35.01 75.85-35.01 75.85-28.66 54.25-28.66Q52.44-28.66 51.43-27.56 50.41-26.46 50.41-24.66L50.41-24.66Q50.41-22.83 51.43-21.77 52.44-20.7 54.25-20.7L54.25-20.7 68.85-20.7 68.89-20.7Q69.92-20.68 71.07-20.42 72.21-20.17 73.35-19.63 74.48-19.09 75.51-18.27 76.54-17.46 77.33-16.31 78.12-15.16 78.59-13.67 79.05-12.18 79.05-10.3Z" opacity="1" transform="matrix(1,0,0,1,0,0)" fill="#ffffff" class="wordmark-text-0" data-fill-palette-color="primary" id="text-0"></path></svg></g></svg></g></svg></g></svg></g><g></g></svg></g><defs></defs></svg><rect width="395.52" height="182.13734104046242" fill="none" stroke="none" visibility="hidden"></rect></g></svg></g></svg>